<svg width="15" height="15" viewBox="0 0 15 15" fill="none" xmlns="http://www.w3.org/2000/svg">
<g clip-path="url(#clip0_1713_22161)">
<path fill-rule="evenodd" clip-rule="evenodd" d="M7.13782 4.15002C7.33785 3.94999 7.66215 3.94999 7.86218 4.15002L10.85 7.13782C10.946 7.23388 11 7.36416 11 7.5C11 7.63584 10.946 7.76612 10.85 7.86218L7.86218 10.85C7.66215 11.05 7.33785 11.05 7.13782 10.85C6.9378 10.65 6.9378 10.3257 7.13782 10.1256L9.25126 8.01219H4.5122C4.22932 8.01219 4 7.78288 4 7.5C4 7.21712 4.22932 6.9878 4.5122 6.9878H9.25126L7.13782 4.87437C6.9378 4.67435 6.9378 4.35004 7.13782 4.15002Z" fill="black" stroke="black" stroke-width="0.1" stroke-linecap="round" stroke-linejoin="round"/>
</g>
<defs>
<clipPath id="clip0_1713_22161">
<rect width="15" height="15" fill="white"/>
</clipPath>
</defs>
</svg>
