<svg width="9" height="5" viewBox="0 0 9 5" fill="none" xmlns="http://www.w3.org/2000/svg">
<path d="M4.18125 4.9125C4.08125 4.9125 3.9875 4.89688 3.9 4.86563C3.8125 4.83438 3.73125 4.78125 3.65625 4.70625L0.20625 1.25625C0.06875 1.11875 0 0.94375 0 0.73125C0 0.51875 0.06875 0.34375 0.20625 0.20625C0.34375 0.06875 0.51875 0 0.73125 0C0.94375 0 1.11875 0.06875 1.25625 0.20625L4.18125 3.13125L7.10625 0.20625C7.24375 0.06875 7.41875 0 7.63125 0C7.84375 0 8.01875 0.06875 8.15625 0.20625C8.29375 0.34375 8.3625 0.51875 8.3625 0.73125C8.3625 0.94375 8.29375 1.11875 8.15625 1.25625L4.70625 4.70625C4.63125 4.78125 4.55 4.83438 4.4625 4.86563C4.375 4.89688 4.28125 4.9125 4.18125 4.9125Z" fill="white"/>
</svg>
